<svg width="24" height="24" viewBox="0 0 24 24" fill="none" xmlns="http://www.w3.org/2000/svg">
<path fill-rule="evenodd" clip-rule="evenodd" d="M23.35 10.3L22.3 9.75C22.1 9.65 21.95 9.5 21.9 9.25C21.65 8.45 21.35 7.65 20.9501 6.9C20.85 6.7 20.8 6.5 20.9 6.3L21.3 5.15C21.4 4.9 21.3001 4.6 21.1 4.4L19.65 2.95C19.45 2.75 19.15 2.7 18.9 2.75L17.75 3.15C17.55 3.2 17.35 3.2 17.15 3.1C16.45 2.7 15.65 2.35 14.85 2.15C14.65 2.1 14.45 1.95 14.35 1.75L13.8 0.65C13.65 0.4 13.4 0.25 13.15 0.25H11.1C10.8 0.25 10.55 0.4 10.45 0.65L9.90005 1.75C9.80005 1.95 9.65005 2.1 9.40005 2.15C8.60005 2.4 7.80005 2.7 7.10005 3.1C6.90005 3.2 6.70005 3.25 6.50005 3.15L5.35005 2.75C5.10005 2.65 4.80005 2.75 4.60005 2.95L2.95005 4.4C2.75005 4.6 2.70005 4.9 2.75005 5.15L3.15005 6.3C3.20005 6.5 3.20005 6.7 3.10005 6.9C2.70005 7.65 2.35005 8.4 2.15005 9.25C2.10005 9.45 1.95005 9.65 1.75005 9.75L0.700049 10.3C0.450049 10.45 0.300049 10.7 0.300049 10.95V13C0.300049 13.3 0.450049 13.55 0.700049 13.65L1.75005 14.2C1.95005 14.3 2.10005 14.45 2.15005 14.7C2.40005 15.5 2.70005 16.3 3.10005 17.05C3.20005 17.25 3.25005 17.45 3.15005 17.65L2.75005 18.8C2.65005 19.05 2.75005 19.35 2.95005 19.55L4.40005 21C4.60005 21.2 4.90005 21.25 5.15005 21.2L6.30005 20.8C6.50005 20.75 6.70005 20.75 6.90005 20.85C7.60005 21.25 8.40005 21.6 9.20005 21.8C9.40005 21.85 9.60005 22 9.70005 22.2L10.25 23.3C10.4 23.55 10.65 23.7 10.9 23.7H12.95C13.25 23.7 13.5 23.55 13.6 23.3L14.15 22.2C14.25 22 14.4 21.85 14.65 21.8C15.45 21.55 16.2501 21.25 16.9501 20.85C17.1501 20.75 17.35 20.7 17.55 20.8L18.7001 21.2C18.9501 21.3 19.25 21.2 19.4501 21L20.9 19.55C21.1 19.35 21.15 19.05 21.1 18.8L20.7001 17.65C20.6501 17.45 20.65 17.25 20.75 17.05C21.15 16.3 21.5 15.55 21.7001 14.7C21.75 14.5 21.9 14.3 22.1 14.2L23.15 13.65C23.4 13.5 23.55 13.25 23.55 13V10.95C23.75 10.7 23.6 10.4 23.35 10.3ZM12 20.75C7.15005 20.75 3.25005 16.85 3.25005 12C3.25005 7.15 7.15005 3.25 12 3.25C16.85 3.25 20.75 7.15 20.75 12C20.75 16.85 16.85 20.75 12 20.75Z" fill="#262626"/>
</svg>
